<svg width="1334" height="200" viewBox="0 0 1334 200" fill="none" xmlns="http://www.w3.org/2000/svg">
<rect x="16" y="45" width="35" height="110" rx="10" fill="white"/>
<rect x="16" y="45" width="129" height="35" rx="10" fill="white"/>
<rect width="110" height="35" rx="10" transform="matrix(0 -1 -1 0 108 155)" fill="white"/>
<rect width="35" height="34" rx="10" transform="matrix(0 -1 -1 0 182 80)" fill="white"/>
<rect width="35" height="72" rx="10" transform="matrix(0 -1 -1 0 145 155)" fill="white"/>
<rect x="148" y="83" width="34" height="72" rx="10" fill="white"/>
<path d="M240.886 65.1818H256.364L277.091 115.773H277.909L298.636 65.1818H314.114V135H301.977V87.0341H301.33L282.034 134.795H272.966L253.67 86.9318H253.023V135H240.886V65.1818ZM350.182 136.023C345.068 136.023 340.636 134.898 336.886 132.648C333.136 130.398 330.227 127.25 328.159 123.205C326.114 119.159 325.091 114.432 325.091 109.023C325.091 103.614 326.114 98.875 328.159 94.8068C330.227 90.7386 333.136 87.5795 336.886 85.3295C340.636 83.0795 345.068 81.9545 350.182 81.9545C355.295 81.9545 359.727 83.0795 363.477 85.3295C367.227 87.5795 370.125 90.7386 372.17 94.8068C374.239 98.875 375.273 103.614 375.273 109.023C375.273 114.432 374.239 119.159 372.17 123.205C370.125 127.25 367.227 130.398 363.477 132.648C359.727 134.898 355.295 136.023 350.182 136.023ZM350.25 126.136C353.023 126.136 355.341 125.375 357.205 123.852C359.068 122.307 360.455 120.239 361.364 117.648C362.295 115.057 362.761 112.17 362.761 108.989C362.761 105.784 362.295 102.886 361.364 100.295C360.455 97.6818 359.068 95.6023 357.205 94.0568C355.341 92.5114 353.023 91.7386 350.25 91.7386C347.409 91.7386 345.045 92.5114 343.159 94.0568C341.295 95.6023 339.898 97.6818 338.966 100.295C338.057 102.886 337.602 105.784 337.602 108.989C337.602 112.17 338.057 115.057 338.966 117.648C339.898 120.239 341.295 122.307 343.159 123.852C345.045 125.375 347.409 126.136 350.25 126.136ZM405.179 135.92C401.065 135.92 397.384 134.864 394.134 132.75C390.884 130.636 388.315 127.568 386.429 123.545C384.543 119.523 383.599 114.636 383.599 108.886C383.599 103.068 384.554 98.1591 386.463 94.1591C388.395 90.1364 390.997 87.1023 394.27 85.0568C397.543 82.9886 401.19 81.9545 405.213 81.9545C408.281 81.9545 410.804 82.4773 412.781 83.5227C414.759 84.5455 416.327 85.7841 417.486 87.2386C418.645 88.6705 419.543 90.0227 420.179 91.2955H420.69V65.1818H433.065V135H420.929V126.75H420.179C419.543 128.023 418.622 129.375 417.418 130.807C416.213 132.216 414.622 133.42 412.645 134.42C410.668 135.42 408.179 135.92 405.179 135.92ZM408.622 125.795C411.236 125.795 413.463 125.091 415.304 123.682C417.145 122.25 418.543 120.261 419.497 117.716C420.452 115.17 420.929 112.205 420.929 108.818C420.929 105.432 420.452 102.489 419.497 99.9886C418.565 97.4886 417.179 95.5455 415.338 94.1591C413.52 92.7727 411.281 92.0795 408.622 92.0795C405.872 92.0795 403.577 92.7955 401.736 94.2273C399.895 95.6591 398.509 97.6364 397.577 100.159C396.645 102.682 396.179 105.568 396.179 108.818C396.179 112.091 396.645 115.011 397.577 117.58C398.531 120.125 399.929 122.136 401.77 123.614C403.634 125.068 405.918 125.795 408.622 125.795ZM469.398 136.023C464.148 136.023 459.614 134.932 455.795 132.75C452 130.545 449.08 127.432 447.034 123.409C444.989 119.364 443.966 114.602 443.966 109.125C443.966 103.739 444.989 99.0114 447.034 94.9432C449.102 90.8523 451.989 87.6705 455.693 85.3977C459.398 83.1023 463.75 81.9545 468.75 81.9545C471.977 81.9545 475.023 82.4773 477.886 83.5227C480.773 84.5455 483.318 86.1364 485.523 88.2955C487.75 90.4545 489.5 93.2045 490.773 96.5455C492.045 99.8636 492.682 103.818 492.682 108.409V112.193H449.761V103.875H480.852C480.83 101.511 480.318 99.4091 479.318 97.5682C478.318 95.7045 476.92 94.2386 475.125 93.1705C473.352 92.1023 471.284 91.5682 468.92 91.5682C466.398 91.5682 464.182 92.1818 462.273 93.4091C460.364 94.6136 458.875 96.2045 457.807 98.1818C456.761 100.136 456.227 102.284 456.205 104.625V111.886C456.205 114.932 456.761 117.545 457.875 119.727C458.989 121.886 460.545 123.545 462.545 124.705C464.545 125.841 466.886 126.409 469.568 126.409C471.364 126.409 472.989 126.159 474.443 125.659C475.898 125.136 477.159 124.375 478.227 123.375C479.295 122.375 480.102 121.136 480.648 119.659L492.17 120.955C491.443 124 490.057 126.659 488.011 128.932C485.989 131.182 483.398 132.932 480.239 134.182C477.08 135.409 473.466 136.023 469.398 136.023ZM515.463 65.1818V135H503.122V65.1818H515.463ZM612.273 88.7386H599.523C599.159 86.6477 598.489 84.7955 597.511 83.1818C596.534 81.5455 595.318 80.1591 593.864 79.0227C592.409 77.8864 590.75 77.0341 588.886 76.4659C587.045 75.875 585.057 75.5795 582.92 75.5795C579.125 75.5795 575.761 76.5341 572.83 78.4432C569.898 80.3295 567.602 83.1023 565.943 86.7614C564.284 90.3977 563.455 94.8409 563.455 100.091C563.455 105.432 564.284 109.932 565.943 113.591C567.625 117.227 569.92 119.977 572.83 121.841C575.761 123.682 579.114 124.602 582.886 124.602C584.977 124.602 586.932 124.33 588.75 123.784C590.591 123.216 592.239 122.386 593.693 121.295C595.17 120.205 596.409 118.864 597.409 117.273C598.432 115.682 599.136 113.864 599.523 111.818L612.273 111.886C611.795 115.205 610.761 118.318 609.17 121.227C607.602 124.136 605.545 126.705 603 128.932C600.455 131.136 597.477 132.864 594.068 134.114C590.659 135.341 586.875 135.955 582.716 135.955C576.58 135.955 571.102 134.534 566.284 131.693C561.466 128.852 557.67 124.75 554.898 119.386C552.125 114.023 550.739 107.591 550.739 100.091C550.739 92.5682 552.136 86.1364 554.932 80.7955C557.727 75.4318 561.534 71.3295 566.352 68.4886C571.17 65.6477 576.625 64.2273 582.716 64.2273C586.602 64.2273 590.216 64.7727 593.557 65.8636C596.898 66.9545 599.875 68.5568 602.489 70.6705C605.102 72.7614 607.25 75.3295 608.932 78.375C610.636 81.3977 611.75 84.8523 612.273 88.7386ZM646.151 136.023C641.037 136.023 636.605 134.898 632.855 132.648C629.105 130.398 626.196 127.25 624.128 123.205C622.082 119.159 621.06 114.432 621.06 109.023C621.06 103.614 622.082 98.875 624.128 94.8068C626.196 90.7386 629.105 87.5795 632.855 85.3295C636.605 83.0795 641.037 81.9545 646.151 81.9545C651.264 81.9545 655.696 83.0795 659.446 85.3295C663.196 87.5795 666.094 90.7386 668.139 94.8068C670.207 98.875 671.241 103.614 671.241 109.023C671.241 114.432 670.207 119.159 668.139 123.205C666.094 127.25 663.196 130.398 659.446 132.648C655.696 134.898 651.264 136.023 646.151 136.023ZM646.219 126.136C648.991 126.136 651.31 125.375 653.173 123.852C655.037 122.307 656.423 120.239 657.332 117.648C658.264 115.057 658.73 112.17 658.73 108.989C658.73 105.784 658.264 102.886 657.332 100.295C656.423 97.6818 655.037 95.6023 653.173 94.0568C651.31 92.5114 648.991 91.7386 646.219 91.7386C643.378 91.7386 641.014 92.5114 639.128 94.0568C637.264 95.6023 635.866 97.6818 634.935 100.295C634.026 102.886 633.571 105.784 633.571 108.989C633.571 112.17 634.026 115.057 634.935 117.648C635.866 120.239 637.264 122.307 639.128 123.852C641.014 125.375 643.378 126.136 646.219 126.136ZM694.057 104.318V135H681.716V82.6364H693.511V91.5341H694.125C695.33 88.6023 697.25 86.2727 699.886 84.5455C702.545 82.8182 705.83 81.9545 709.739 81.9545C713.352 81.9545 716.5 82.7273 719.182 84.2727C721.886 85.8182 723.977 88.0568 725.455 90.9886C726.955 93.9205 727.693 97.4773 727.67 101.659V135H715.33V103.568C715.33 100.068 714.42 97.3295 712.602 95.3523C710.807 93.375 708.318 92.3864 705.136 92.3864C702.977 92.3864 701.057 92.8636 699.375 93.8182C697.716 94.75 696.409 96.1023 695.455 97.875C694.523 99.6477 694.057 101.795 694.057 104.318ZM766.364 82.6364V92.1818H736.261V82.6364H766.364ZM743.693 70.0909H756.034V119.25C756.034 120.909 756.284 122.182 756.784 123.068C757.307 123.932 757.989 124.523 758.83 124.841C759.67 125.159 760.602 125.318 761.625 125.318C762.398 125.318 763.102 125.261 763.739 125.148C764.398 125.034 764.898 124.932 765.239 124.841L767.318 134.489C766.659 134.716 765.716 134.966 764.489 135.239C763.284 135.511 761.807 135.67 760.057 135.716C756.966 135.807 754.182 135.341 751.705 134.318C749.227 133.273 747.261 131.659 745.807 129.477C744.375 127.295 743.67 124.568 743.693 121.295V70.0909ZM776.685 135V82.6364H788.651V91.3636H789.196C790.151 88.3409 791.787 86.0114 794.105 84.375C796.446 82.7159 799.116 81.8864 802.116 81.8864C802.798 81.8864 803.56 81.9205 804.401 81.9886C805.264 82.0341 805.98 82.1136 806.548 82.2273V93.5795C806.026 93.3977 805.196 93.2386 804.06 93.1023C802.946 92.9432 801.866 92.8636 800.821 92.8636C798.571 92.8636 796.548 93.3523 794.753 94.3295C792.98 95.2841 791.582 96.6136 790.56 98.3182C789.537 100.023 789.026 101.989 789.026 104.216V135H776.685ZM835.432 136.023C830.318 136.023 825.886 134.898 822.136 132.648C818.386 130.398 815.477 127.25 813.409 123.205C811.364 119.159 810.341 114.432 810.341 109.023C810.341 103.614 811.364 98.875 813.409 94.8068C815.477 90.7386 818.386 87.5795 822.136 85.3295C825.886 83.0795 830.318 81.9545 835.432 81.9545C840.545 81.9545 844.977 83.0795 848.727 85.3295C852.477 87.5795 855.375 90.7386 857.42 94.8068C859.489 98.875 860.523 103.614 860.523 109.023C860.523 114.432 859.489 119.159 857.42 123.205C855.375 127.25 852.477 130.398 848.727 132.648C844.977 134.898 840.545 136.023 835.432 136.023ZM835.5 126.136C838.273 126.136 840.591 125.375 842.455 123.852C844.318 122.307 845.705 120.239 846.614 117.648C847.545 115.057 848.011 112.17 848.011 108.989C848.011 105.784 847.545 102.886 846.614 100.295C845.705 97.6818 844.318 95.6023 842.455 94.0568C840.591 92.5114 838.273 91.7386 835.5 91.7386C832.659 91.7386 830.295 92.5114 828.409 94.0568C826.545 95.6023 825.148 97.6818 824.216 100.295C823.307 102.886 822.852 105.784 822.852 108.989C822.852 112.17 823.307 115.057 824.216 117.648C825.148 120.239 826.545 122.307 828.409 123.852C830.295 125.375 832.659 126.136 835.5 126.136ZM883.338 65.1818V135H870.997V65.1818H883.338ZM933.034 65.1818V135H920.386V65.1818H933.034ZM958.526 104.318V135H946.185V82.6364H957.98V91.5341H958.594C959.798 88.6023 961.719 86.2727 964.355 84.5455C967.014 82.8182 970.298 81.9545 974.207 81.9545C977.821 81.9545 980.969 82.7273 983.651 84.2727C986.355 85.8182 988.446 88.0568 989.923 90.9886C991.423 93.9205 992.162 97.4773 992.139 101.659V135H979.798V103.568C979.798 100.068 978.889 97.3295 977.071 95.3523C975.276 93.375 972.787 92.3864 969.605 92.3864C967.446 92.3864 965.526 92.8636 963.844 93.8182C962.185 94.75 960.878 96.1023 959.923 97.875C958.991 99.6477 958.526 101.795 958.526 104.318ZM1030.83 82.6364V92.1818H1000.73V82.6364H1030.83ZM1008.16 70.0909H1020.5V119.25C1020.5 120.909 1020.75 122.182 1021.25 123.068C1021.78 123.932 1022.46 124.523 1023.3 124.841C1024.14 125.159 1025.07 125.318 1026.09 125.318C1026.87 125.318 1027.57 125.261 1028.21 125.148C1028.87 125.034 1029.37 124.932 1029.71 124.841L1031.79 134.489C1031.13 134.716 1030.18 134.966 1028.96 135.239C1027.75 135.511 1026.28 135.67 1024.53 135.716C1021.43 135.807 1018.65 135.341 1016.17 134.318C1013.7 133.273 1011.73 131.659 1010.28 129.477C1008.84 127.295 1008.14 124.568 1008.16 121.295V70.0909ZM1063.77 136.023C1058.52 136.023 1053.99 134.932 1050.17 132.75C1046.38 130.545 1043.45 127.432 1041.41 123.409C1039.36 119.364 1038.34 114.602 1038.34 109.125C1038.34 103.739 1039.36 99.0114 1041.41 94.9432C1043.48 90.8523 1046.36 87.6705 1050.07 85.3977C1053.77 83.1023 1058.12 81.9545 1063.12 81.9545C1066.35 81.9545 1069.4 82.4773 1072.26 83.5227C1075.15 84.5455 1077.69 86.1364 1079.9 88.2955C1082.13 90.4545 1083.88 93.2045 1085.15 96.5455C1086.42 99.8636 1087.06 103.818 1087.06 108.409V112.193H1044.14V103.875H1075.23C1075.2 101.511 1074.69 99.4091 1073.69 97.5682C1072.69 95.7045 1071.3 94.2386 1069.5 93.1705C1067.73 92.1023 1065.66 91.5682 1063.3 91.5682C1060.77 91.5682 1058.56 92.1818 1056.65 93.4091C1054.74 94.6136 1053.25 96.2045 1052.18 98.1818C1051.14 100.136 1050.6 102.284 1050.58 104.625V111.886C1050.58 114.932 1051.14 117.545 1052.25 119.727C1053.36 121.886 1054.92 123.545 1056.92 124.705C1058.92 125.841 1061.26 126.409 1063.94 126.409C1065.74 126.409 1067.36 126.159 1068.82 125.659C1070.27 125.136 1071.53 124.375 1072.6 123.375C1073.67 122.375 1074.48 121.136 1075.02 119.659L1086.55 120.955C1085.82 124 1084.43 126.659 1082.39 128.932C1080.36 131.182 1077.77 132.932 1074.61 134.182C1071.45 135.409 1067.84 136.023 1063.77 136.023ZM1097.5 135V82.6364H1109.46V91.3636H1110.01C1110.96 88.3409 1112.6 86.0114 1114.92 84.375C1117.26 82.7159 1119.93 81.8864 1122.93 81.8864C1123.61 81.8864 1124.37 81.9205 1125.21 81.9886C1126.08 82.0341 1126.79 82.1136 1127.36 82.2273V93.5795C1126.84 93.3977 1126.01 93.2386 1124.87 93.1023C1123.76 92.9432 1122.68 92.8636 1121.63 92.8636C1119.38 92.8636 1117.36 93.3523 1115.57 94.3295C1113.79 95.2841 1112.39 96.6136 1111.37 98.3182C1110.35 100.023 1109.84 101.989 1109.84 104.216V135H1097.5ZM1164.89 82.6364V92.1818H1133.94V82.6364H1164.89ZM1141.68 135V77.6932C1141.68 74.1705 1142.41 71.2386 1143.86 68.8977C1145.34 66.5568 1147.32 64.8068 1149.79 63.6477C1152.27 62.4886 1155.02 61.9091 1158.04 61.9091C1160.18 61.9091 1162.08 62.0795 1163.74 62.4205C1165.39 62.7614 1166.62 63.0682 1167.42 63.3409L1164.96 72.8864C1164.44 72.7273 1163.78 72.5682 1162.99 72.4091C1162.19 72.2273 1161.3 72.1364 1160.33 72.1364C1158.03 72.1364 1156.41 72.6932 1155.45 73.8068C1154.52 74.8977 1154.05 76.4659 1154.05 78.5114V135H1141.68ZM1187.85 136.057C1184.53 136.057 1181.54 135.466 1178.88 134.284C1176.24 133.08 1174.15 131.307 1172.61 128.966C1171.09 126.625 1170.32 123.739 1170.32 120.307C1170.32 117.352 1170.87 114.909 1171.96 112.977C1173.05 111.045 1174.54 109.5 1176.43 108.341C1178.31 107.182 1180.44 106.307 1182.8 105.716C1185.19 105.102 1187.65 104.659 1190.2 104.386C1193.27 104.068 1195.76 103.784 1197.66 103.534C1199.57 103.261 1200.96 102.852 1201.82 102.307C1202.71 101.739 1203.15 100.864 1203.15 99.6818V99.4773C1203.15 96.9091 1202.39 94.9205 1200.87 93.5114C1199.35 92.1023 1197.15 91.3977 1194.29 91.3977C1191.27 91.3977 1188.87 92.0568 1187.1 93.375C1185.35 94.6932 1184.16 96.25 1183.55 98.0455L1172.03 96.4091C1172.94 93.2273 1174.44 90.5682 1176.53 88.4318C1178.62 86.2727 1181.18 84.6591 1184.2 83.5909C1187.22 82.5 1190.56 81.9545 1194.22 81.9545C1196.74 81.9545 1199.26 82.25 1201.76 82.8409C1204.26 83.4318 1206.54 84.4091 1208.61 85.7727C1210.68 87.1136 1212.34 88.9432 1213.59 91.2614C1214.86 93.5795 1215.49 96.4773 1215.49 99.9545V135H1203.63V127.807H1203.22C1202.47 129.261 1201.41 130.625 1200.05 131.898C1198.71 133.148 1197.02 134.159 1194.97 134.932C1192.95 135.682 1190.57 136.057 1187.85 136.057ZM1191.05 126.989C1193.53 126.989 1195.68 126.5 1197.49 125.523C1199.31 124.523 1200.71 123.205 1201.69 121.568C1202.69 119.932 1203.19 118.148 1203.19 116.216V110.045C1202.8 110.364 1202.14 110.659 1201.21 110.932C1200.3 111.205 1199.28 111.443 1198.14 111.648C1197.01 111.852 1195.88 112.034 1194.77 112.193C1193.65 112.352 1192.69 112.489 1191.87 112.602C1190.03 112.852 1188.38 113.261 1186.93 113.83C1185.47 114.398 1184.32 115.193 1183.48 116.216C1182.64 117.216 1182.22 118.511 1182.22 120.102C1182.22 122.375 1183.05 124.091 1184.71 125.25C1186.37 126.409 1188.48 126.989 1191.05 126.989ZM1250.74 136.023C1245.52 136.023 1241.03 134.875 1237.28 132.58C1233.55 130.284 1230.68 127.114 1228.65 123.068C1226.65 119 1225.65 114.318 1225.65 109.023C1225.65 103.705 1226.68 99.0114 1228.72 94.9432C1230.77 90.8523 1233.65 87.6705 1237.38 85.3977C1241.13 83.1023 1245.56 81.9545 1250.68 81.9545C1254.93 81.9545 1258.69 82.7386 1261.96 84.3068C1265.26 85.8523 1267.88 88.0455 1269.84 90.8864C1271.79 93.7045 1272.9 97 1273.18 100.773H1261.38C1260.9 98.25 1259.77 96.1477 1257.97 94.4659C1256.2 92.7614 1253.82 91.9091 1250.85 91.9091C1248.32 91.9091 1246.11 92.5909 1244.2 93.9545C1242.29 95.2955 1240.8 97.2273 1239.73 99.75C1238.69 102.273 1238.16 105.295 1238.16 108.818C1238.16 112.386 1238.69 115.455 1239.73 118.023C1240.78 120.568 1242.24 122.534 1244.13 123.92C1246.04 125.284 1248.28 125.966 1250.85 125.966C1252.66 125.966 1254.29 125.625 1255.72 124.943C1257.18 124.239 1258.39 123.227 1259.37 121.909C1260.35 120.591 1261.02 118.989 1261.38 117.102H1273.18C1272.88 120.807 1271.79 124.091 1269.9 126.955C1268.02 129.795 1265.45 132.023 1262.2 133.636C1258.95 135.227 1255.13 136.023 1250.74 136.023ZM1306.49 136.023C1301.24 136.023 1296.71 134.932 1292.89 132.75C1289.09 130.545 1286.17 127.432 1284.13 123.409C1282.08 119.364 1281.06 114.602 1281.06 109.125C1281.06 103.739 1282.08 99.0114 1284.13 94.9432C1286.2 90.8523 1289.08 87.6705 1292.79 85.3977C1296.49 83.1023 1300.84 81.9545 1305.84 81.9545C1309.07 81.9545 1312.12 82.4773 1314.98 83.5227C1317.87 84.5455 1320.41 86.1364 1322.62 88.2955C1324.84 90.4545 1326.59 93.2045 1327.87 96.5455C1329.14 99.8636 1329.78 103.818 1329.78 108.409V112.193H1286.86V103.875H1317.95C1317.92 101.511 1317.41 99.4091 1316.41 97.5682C1315.41 95.7045 1314.01 94.2386 1312.22 93.1705C1310.45 92.1023 1308.38 91.5682 1306.01 91.5682C1303.49 91.5682 1301.28 92.1818 1299.37 93.4091C1297.46 94.6136 1295.97 96.2045 1294.9 98.1818C1293.86 100.136 1293.32 102.284 1293.3 104.625V111.886C1293.3 114.932 1293.86 117.545 1294.97 119.727C1296.08 121.886 1297.64 123.545 1299.64 124.705C1301.64 125.841 1303.98 126.409 1306.66 126.409C1308.46 126.409 1310.08 126.159 1311.54 125.659C1312.99 125.136 1314.25 124.375 1315.32 123.375C1316.39 122.375 1317.2 121.136 1317.74 119.659L1329.26 120.955C1328.54 124 1327.15 126.659 1325.11 128.932C1323.08 131.182 1320.49 132.932 1317.33 134.182C1314.17 135.409 1310.56 136.023 1306.49 136.023Z" fill="white"/>
</svg>
