<svg width="200" height="200" viewBox="0 0 200 200" fill="none" xmlns="http://www.w3.org/2000/svg">
<mask id="path-1-inside-1_54_53" fill="white">
<path d="M134 59C139.523 59 144 63.4772 144 69V79C144 84.5228 139.523 89 134 89H112V123H134C139.523 123 144 127.477 144 133V143C144 148.523 139.523 153 134 153H92C86.4772 153 82 148.523 82 143V89H63V143C63 148.523 58.5228 153 53 153H43C37.4772 153 33 148.523 33 143V69C33 63.4772 37.4772 59 43 59H134ZM166 91C171.523 91 176 95.4772 176 101V143C176 148.523 171.523 153 166 153H156C150.477 153 146 148.523 146 143V101C146 95.4772 150.477 91 156 91H166ZM166 59C171.523 59 176 63.4772 176 69V79C176 84.5228 171.523 89 166 89H156C150.477 89 146 84.5228 146 79V69C146 63.4772 150.477 59 156 59H166Z"/>
</mask>
<path d="M134 59C139.523 59 144 63.4772 144 69V79C144 84.5228 139.523 89 134 89H112V123H134C139.523 123 144 127.477 144 133V143C144 148.523 139.523 153 134 153H92C86.4772 153 82 148.523 82 143V89H63V143C63 148.523 58.5228 153 53 153H43C37.4772 153 33 148.523 33 143V69C33 63.4772 37.4772 59 43 59H134ZM166 91C171.523 91 176 95.4772 176 101V143C176 148.523 171.523 153 166 153H156C150.477 153 146 148.523 146 143V101C146 95.4772 150.477 91 156 91H166ZM166 59C171.523 59 176 63.4772 176 69V79C176 84.5228 171.523 89 166 89H156C150.477 89 146 84.5228 146 79V69C146 63.4772 150.477 59 156 59H166Z" fill="black"/>
<path d="M134 59V55V55V59ZM144 69H148V69H144ZM112 89V85H108V89H112ZM112 123H108V127H112V123ZM144 143H148V143H144ZM92 153L92 157H92V153ZM82 89H86V85H82V89ZM63 89V85H59V89H63ZM43 153L43 157H43V153ZM33 143H29V143H33ZM43 59V55H43L43 59ZM176 143H180V143H176ZM156 153L156 157H156V153ZM146 101H142V101H146ZM156 91V87H156L156 91ZM176 79H180V79H176ZM156 89L156 93H156V89ZM146 69H142V69H146ZM156 59V55H156L156 59ZM134 59V63C137.314 63 140 65.6863 140 69H144H148C148 61.268 141.732 55 134 55V59ZM144 69H140V79H144H148V69H144ZM144 79H140C140 82.3137 137.314 85 134 85V89V93C141.732 93 148 86.732 148 79H144ZM134 89V85H112V89V93H134V89ZM112 89H108V123H112H116V89H112ZM112 123V127H134V123V119H112V123ZM134 123V127C137.314 127 140 129.686 140 133H144H148C148 125.268 141.732 119 134 119V123ZM144 133H140V143H144H148V133H144ZM144 143H140C140 146.314 137.314 149 134 149V153V157C141.732 157 148 150.732 148 143H144ZM134 153V149H92V153V157H134V153ZM92 153L92 149C88.6863 149 86 146.314 86 143H82H78C78 150.732 84.268 157 92 157L92 153ZM82 143H86V89H82H78V143H82ZM82 89V85H63V89V93H82V89ZM63 89H59V143H63H67V89H63ZM63 143H59C59 146.314 56.3137 149 53 149V153V157C60.732 157 67 150.732 67 143H63ZM53 153V149H43V153V157H53V153ZM43 153L43 149C39.6863 149 37 146.314 37 143H33H29C29 150.732 35.268 157 43 157L43 153ZM33 143H37V69H33H29V143H33ZM33 69H37C37 65.6863 39.6863 63 43 63L43 59L43 55C35.268 55 29 61.268 29 69H33ZM43 59V63H134V59V55H43V59ZM166 91V95C169.314 95 172 97.6863 172 101H176H180C180 93.268 173.732 87 166 87V91ZM176 101H172V143H176H180V101H176ZM176 143H172C172 146.314 169.314 149 166 149V153V157C173.732 157 180 150.732 180 143H176ZM166 153V149H156V153V157H166V153ZM156 153L156 149C152.686 149 150 146.314 150 143H146H142C142 150.732 148.268 157 156 157L156 153ZM146 143H150V101H146H142V143H146ZM146 101H150C150 97.6863 152.686 95 156 95L156 91L156 87C148.268 87 142 93.268 142 101H146ZM156 91V95H166V91V87H156V91ZM166 59V63C169.314 63 172 65.6863 172 69H176H180C180 61.268 173.732 55 166 55V59ZM176 69H172V79H176H180V69H176ZM176 79H172C172 82.3137 169.314 85 166 85V89V93C173.732 93 180 86.732 180 79H176ZM166 89V85H156V89V93H166V89ZM156 89L156 85C152.686 85 150 82.3137 150 79H146H142C142 86.732 148.268 93 156 93L156 89ZM146 79H150V69H146H142V79H146ZM146 69H150C150 65.6863 152.686 63 156 63L156 59L156 55C148.268 55 142 61.268 142 69H146ZM156 59V63H166V59V55H156V59Z" fill="white" mask="url(#path-1-inside-1_54_53)"/>
</svg>
